<svg width="17" height="18" viewBox="0 0 17 18" fill="none" xmlns="http://www.w3.org/2000/svg">
<path fill-rule="evenodd" clip-rule="evenodd" d="M7.89636 0.0166403C6.85913 0.173898 5.9389 0.637985 5.24448 1.35398C4.44388 2.17944 4.07991 3.12943 4.07531 4.40556L4.0733 4.96024L2.24801 4.96045C0.534874 4.96062 0.411329 4.96716 0.237423 5.06701C0.135494 5.1255 0.037589 5.22886 0.0198247 5.29678C0.00206044 5.36469 -0.00512578 7.70926 0.00390008 10.507L0.0202848 15.5938L0.178554 15.9659C0.496586 16.7137 1.05929 17.2974 1.80246 17.6505C2.5531 18.007 2.41806 18 8.5 18C14.5762 18 14.4402 18.0071 15.1975 17.6526C15.9302 17.3098 16.503 16.7149 16.8214 15.9659L16.9797 15.5938L16.9961 10.507C17.0051 7.70926 16.9979 5.36469 16.9802 5.29678C16.9624 5.22886 16.8645 5.1255 16.7626 5.06701C16.5887 4.96716 16.4651 4.96062 14.752 4.96045L12.9267 4.96024V4.44301C12.9267 3.80397 12.8436 3.28165 12.662 2.77898C12.2031 1.50912 11.0232 0.478184 9.61898 0.120161C9.27289 0.0319004 8.21497 -0.03163 7.89636 0.0166403ZM9.33118 1.20094C10.1785 1.40869 11.0187 2.05974 11.389 2.79565C11.652 3.31823 11.7194 3.63881 11.7194 4.36763V4.96024H8.5H5.28058V4.36763C5.28058 3.63881 5.34796 3.31823 5.61097 2.79565C5.97534 2.07159 6.81619 1.41323 7.64409 1.20365C8.05739 1.09899 8.9099 1.09764 9.33118 1.20094ZM4.0733 6.8299C4.0733 7.80445 4.17241 7.99066 4.69108 7.99066C4.93587 7.99066 5.13519 7.85651 5.2266 7.6302C5.25632 7.55672 5.28058 7.18159 5.28058 6.79662V6.09665H8.5H11.7194V6.79207C11.7194 7.17456 11.7472 7.56256 11.7812 7.65434C11.8597 7.86641 12.0606 7.99066 12.3248 7.99066C12.826 7.99066 12.9267 7.79639 12.9267 6.8299V6.09665H14.3927H15.8587V10.6095C15.8587 14.9754 15.8549 15.1336 15.7434 15.4663C15.5374 16.0811 15.0853 16.5289 14.442 16.7555C14.1358 16.8633 14.0189 16.8655 8.5 16.8655C2.94536 16.8655 2.86608 16.864 2.55184 16.7533C1.91836 16.5302 1.42493 16.027 1.23263 15.4081C1.15243 15.1499 1.14133 14.5651 1.14133 10.6054V6.09665H2.60732H4.0733V6.8299Z" fill="#4C4C4C"/>
</svg>
