<svg width="20" height="20" viewBox="0 0 20 20" fill="none" xmlns="http://www.w3.org/2000/svg">
<path fill-rule="evenodd" clip-rule="evenodd" d="M18.8552 0.0425219C18.7953 0.063634 16.778 2.04418 14.3723 4.44371L9.9983 8.80651L5.62234 4.43587L1.2463 0.0652303H0.89563C0.593531 0.0652303 0.510619 0.0994741 0.29804 0.311901C0.0854597 0.524328 0.0511913 0.60718 0.0511913 0.909062V1.25948L4.42498 5.63237L8.79876 10.0052L4.41975 14.3815C0.338262 18.4605 0.0384132 18.7771 0.00588736 19.0426C-0.060689 19.5852 0.448181 20.0771 0.985874 19.9899C1.21145 19.9533 1.80715 19.386 5.62125 15.575L9.99772 11.2021L14.3742 15.575C18.1883 19.386 18.784 19.9533 19.0096 19.9899C19.5473 20.0771 20.0561 19.5852 19.9896 19.0426C19.957 18.7771 19.6572 18.4604 15.5754 14.3812L11.1961 10.0046L15.5721 5.63128C19.3859 1.81993 19.9536 1.22465 19.9902 0.999241C20.0884 0.394898 19.4299 -0.160111 18.8552 0.0425219Z" fill="#C6C7D0"/>
</svg>
