<svg width="113" height="118" viewBox="0 0 113 118" fill="none" xmlns="http://www.w3.org/2000/svg">
<path fill-rule="evenodd" clip-rule="evenodd" d="M102.437 0.179391C102.033 0.342694 101.427 1.54553 101.427 2.18363C101.427 2.97089 102.687 4.09555 103.569 4.09555C104.617 4.09555 105.488 3.17088 105.488 2.05726C105.488 0.547482 103.918 -0.418667 102.437 0.179391ZM3.59584 9.45529C0.854953 10.7365 -0.589193 13.8129 0.227126 16.6315C0.74052 18.4043 1.7298 19.6738 3.25756 20.5201C4.9375 21.451 7.32769 21.5289 8.88531 20.7038C11.1711 19.493 12.3037 17.6389 12.3121 15.0937C12.3271 10.5231 7.70634 7.53402 3.59584 9.45529ZM30.1289 10.8634C29.8043 11.3286 29.757 12.9288 29.757 23.4528V35.5092H19.6207C10.7246 35.5092 9.43884 35.5552 9.10916 35.8859C8.77159 36.225 8.73385 39.6515 8.73385 70.0201C8.73385 102.419 8.75153 103.794 9.1708 104.174C9.5743 104.541 13.2813 104.571 57.6501 104.571C101.007 104.571 105.729 104.535 106.068 104.195C106.406 103.855 106.444 100.429 106.444 70.0604C106.444 37.6612 106.426 36.2869 106.007 35.9061C105.615 35.55 104.535 35.5092 95.4951 35.5092H85.4205V23.3166C85.4205 11.8092 85.3959 11.1017 84.9836 10.7272C84.5824 10.3629 82.3337 10.3303 57.5238 10.3303H30.5007L30.1289 10.8634ZM7.94262 11.6866C8.4013 11.9051 9.04872 12.4967 9.38151 13.0014C9.90661 13.798 9.9723 14.1139 9.87985 15.3956C9.7819 16.755 9.69614 16.9447 8.80194 17.7821C8.21377 18.3329 7.4813 18.7576 6.94521 18.8585C4.26309 19.3635 1.81819 16.7924 2.51411 14.1985C3.16439 11.7746 5.68191 10.6099 7.94262 11.6866ZM83.031 37.0079L83.0305 61.2876L77.7564 67.4864L72.482 73.6852L71.9635 73.2149C71.6783 72.9564 68.4582 70.1939 64.8076 67.0761C60.2931 63.2206 57.9927 61.4075 57.6157 61.4075C57.2373 61.4075 54.7967 63.345 49.9232 67.5142C45.9969 70.8728 42.7146 73.5437 42.6291 73.4492C42.5433 73.3547 40.1496 70.5323 37.3095 67.1773L32.146 61.077V36.9027V12.7283H57.5887H83.0315L83.031 37.0079ZM38.5559 20.9414C37.9839 21.404 37.881 21.9757 38.2694 22.5325L38.6232 23.0397H57.5852C74.5047 23.0397 76.5874 22.9991 76.9226 22.6629C77.4257 22.1577 77.3954 21.6987 76.8201 21.1213C76.3504 20.6498 76.0239 20.6417 57.6344 20.6417C43.025 20.6417 38.8452 20.7074 38.5559 20.9414ZM38.5559 28.3752C37.9839 28.8377 37.881 29.4094 38.2694 29.9662L38.6232 30.4734H57.5852C74.5047 30.4734 76.5874 30.4329 76.9226 30.0967C77.4257 29.5914 77.3954 29.1325 76.8201 28.555C76.3504 28.0836 76.0239 28.0754 57.6344 28.0754C43.025 28.0754 38.8452 28.1411 38.5559 28.3752ZM38.5559 35.8089C37.9839 36.2715 37.881 36.8432 38.2694 37.4L38.6232 37.9072H57.5852C74.5047 37.9072 76.5874 37.8667 76.9226 37.5305C77.4257 37.0252 77.3954 36.5662 76.8201 35.9888C76.3504 35.5173 76.0239 35.5092 57.6344 35.5092C43.025 35.5092 38.8452 35.5749 38.5559 35.8089ZM29.757 48.0332V58.1594L29.1894 57.5652C28.8774 57.2386 25.1529 52.8706 20.9132 47.8588C16.6732 42.847 13.0419 38.5578 12.8432 38.3268C12.5003 37.9283 12.9153 37.9072 21.1196 37.9072H29.757V48.0332ZM102.581 38.1295C102.52 38.2997 89.9061 53.2363 86.0873 57.6601L85.4398 58.41L85.4303 48.1586L85.4205 37.9072H94.0407C99.2358 37.9072 102.629 37.9957 102.581 38.1295ZM30.2001 62.4866C38.4737 72.2289 40.92 75.2518 40.6783 75.4357C40.5051 75.5676 33.8424 81.2599 25.8725 88.0851C17.9026 94.9102 11.3233 100.495 11.2523 100.495C11.1811 100.495 11.1228 86.8885 11.1228 70.2587V40.0227L15.2649 44.9C17.5428 47.5823 24.2637 55.4964 30.2001 62.4866ZM103.997 85.4056L103.935 100.568L89.3155 88.0599C81.2746 81.1803 74.6344 75.452 74.5594 75.3299C74.4842 75.2081 81.0632 67.2893 89.1791 57.7326L103.935 40.357L103.997 55.2998C104.031 63.5184 104.031 77.0661 103.997 85.4056ZM38.5559 43.2427C37.9839 43.7053 37.881 44.277 38.2694 44.8338L38.6232 45.3409H57.5852C74.5047 45.3409 76.5874 45.3004 76.9226 44.9642C77.4257 44.459 77.3954 44 76.8201 43.4226C76.3504 42.9511 76.0239 42.943 57.6344 42.943C43.025 42.943 38.8452 43.0087 38.5559 43.2427ZM80.4985 83.6814L101.975 102.053L79.8604 102.115C67.6975 102.148 47.7327 102.148 35.4941 102.115L13.2424 102.053L28.8458 88.7103C37.4278 81.3714 47.4057 72.8348 51.019 69.74L57.5887 64.1131L58.3054 64.7114C58.6996 65.0404 68.6863 73.577 80.4985 83.6814ZM105.289 107.833C100.188 110.385 101.948 118 107.638 118C113.341 118 115.096 110.197 109.936 107.785C108.305 107.023 106.879 107.038 105.289 107.833ZM108.962 109.987C110.013 110.488 110.584 111.407 110.584 112.598C110.584 113.822 110.201 114.544 109.235 115.134C107.828 115.996 105.718 115.491 104.986 114.117C104.564 113.327 104.623 111.735 105.101 111.003C105.567 110.29 106.77 109.621 107.602 109.613C107.911 109.609 108.523 109.778 108.962 109.987ZM2.84666 110.319C0.826524 111.158 1.41756 114.259 3.59752 114.259C5.32595 114.259 6.23783 112.237 5.09064 110.948C4.47619 110.258 3.59154 110.01 2.84666 110.319Z" fill="#FFCC00"/>
</svg>
