<svg width="83" height="83" viewBox="0 0 83 83" fill="none" xmlns="http://www.w3.org/2000/svg">
<path d="M11.7016 0.301582C9.96746 0.771591 9.14089 2.53819 9.95126 4.09408C10.1295 4.41823 11.7665 6.18481 13.5817 8.00003L16.9042 11.2901L16.1911 13.4295L15.4779 15.5688L13.3548 16.2657L11.2316 16.9626L7.79569 13.5591C5.91565 11.6953 4.21389 10.0746 4.00319 9.97732C3.48456 9.70179 2.15557 9.718 1.60452 10.0097C0.291731 10.6904 0 11.5656 0.0162073 14.7422C0.0162073 16.7195 0.0972436 17.4164 0.372767 18.4699C1.75038 23.4455 5.62392 27.4001 10.5347 28.8426C11.6368 29.1667 12.4958 29.2964 14.0355 29.3612L16.0938 29.4584L21.1667 34.5313L26.2558 39.6204L18.6059 47.2864C14.4083 51.4841 10.8913 55.0983 10.794 55.2928C10.5185 55.8438 10.5833 56.2977 11.0209 56.719C11.2803 56.9784 11.5882 57.1242 11.9447 57.1242C12.4148 57.1242 12.9982 56.6056 17.909 51.6948C23.1116 46.5085 23.3871 46.2654 23.9705 46.2654C24.7485 46.2654 25.3644 46.8488 25.3644 47.5944C25.3644 48.0806 24.6512 48.8423 17.2283 56.2652C12.7551 60.7384 8.94641 64.4337 8.76813 64.4499C7.82811 64.612 6.90429 63.7044 7.13119 62.8454C7.17982 62.6185 7.8119 61.8243 8.52502 61.0788C9.93505 59.6201 10.0647 59.215 9.44883 58.518C9.09227 58.1291 8.80054 58.0318 8.11984 58.0805C7.61741 58.1129 1.60452 64.1744 1.13451 65.1306C0.696912 66.0058 0.583461 67.432 0.891399 68.2262C1.03726 68.599 0.972436 68.8421 0.53484 69.7335C0.0324145 70.7545 0 70.9166 0 72.6022C0 75.2601 0.210694 75.6167 3.69526 79.1337C7.24464 82.7155 7.71466 82.9748 10.3726 82.9748C12.0744 82.9748 12.2203 82.9424 13.2413 82.44C14.1327 82.0024 14.3758 81.9375 14.7486 82.0834C15.4617 82.3589 16.9528 82.2779 17.7469 81.9051C18.3142 81.662 21.3125 78.7447 30.9235 69.15L43.3544 56.719L48.4435 61.8081L53.5164 66.881L53.6136 68.8583C53.7271 71.257 54.1322 72.8939 55.1047 74.8712C56.9199 78.5988 60.4369 81.4837 64.5049 82.5858C66.2553 83.072 70.4692 83.1207 71.474 82.6831C72.252 82.3265 72.6409 81.9862 72.9651 81.3703C73.2568 80.8192 73.273 79.4902 72.9975 78.9716C72.9003 78.7609 71.2795 77.0591 69.4157 75.1791L66.0122 71.7432L66.7091 69.62L67.406 67.4969L69.5453 66.7837L71.6847 66.0706L74.9748 69.3931C76.79 71.2083 78.5566 72.8453 78.8807 73.0235C80.5015 73.8663 82.3167 72.9425 82.7218 71.0625C82.9812 69.8469 82.9325 66.7027 82.6408 65.2603C82.1384 62.7481 80.858 60.3171 79.0104 58.3722C76.1093 55.2928 72.5923 53.7207 68.6377 53.7045H66.9198L59.3834 46.1681L51.8632 38.6479L66.077 24.418L80.307 10.2042L81.6035 6.80069C82.5922 4.19132 82.9001 3.20268 82.9001 2.58681C82.9001 1.07953 81.8953 0.0746841 80.388 0.0746841C79.7721 0.0746841 78.7835 0.382622 76.1741 1.37126L72.7706 2.66784L68.427 7.01139C66.0446 9.39385 64.0511 11.5008 64.0025 11.7115C63.7756 12.5867 64.7156 13.5429 65.5908 13.2836C65.8015 13.2188 67.8274 11.3063 70.1126 9.03729L74.2617 4.90444L77.2276 3.78614C78.8483 3.17027 80.2259 2.68405 80.2583 2.71646C80.2908 2.74888 79.8045 4.1265 79.1887 5.74722L78.0542 8.72935L61.9279 24.8556L45.7855 40.998L43.8893 39.0855L41.9768 37.1893L52.5601 26.606C62.2359 16.914 63.1273 15.9902 63.1273 15.504C63.1273 14.7909 62.5114 14.175 61.7983 14.175C61.3121 14.175 60.5341 14.9043 52.8032 22.6352L44.3269 31.1116L36.7905 23.5752L29.2541 16.0388V14.4505C29.2541 10.5122 27.8927 7.30312 24.9592 4.36961C22.755 2.16542 20.4698 0.88504 17.7145 0.334C16.2073 0.026062 12.8037 0.00984955 11.7016 0.301582ZM17.4228 2.94337C18.0063 3.07302 19.1732 3.51062 20.016 3.93201C21.345 4.56409 21.7663 4.88824 23.1116 6.21723C24.4405 7.54623 24.7647 7.98383 25.3968 9.31282C26.3692 11.3063 26.6609 12.6677 26.6609 15.1798V17.1733L34.5539 25.0663L42.463 32.9754L41.2799 34.1423L40.113 35.3255L38.4598 33.6723C37.536 32.7809 36.6284 31.9544 36.4339 31.8571C35.9315 31.5978 34.8132 31.6302 34.1973 31.9381C33.5328 32.2461 31.2638 34.5637 31.0369 35.1472C30.7452 35.9251 30.8424 36.93 31.2638 37.5621L31.6528 38.1293L30.2752 38.3238L28.8975 38.5183L22.9495 32.6026L17.0176 26.6708L15.4779 26.768C12.7227 26.9301 10.3078 26.3142 8.11984 24.8718C4.40837 22.4245 2.31764 18.3889 2.54454 14.0615C2.59316 13.2188 2.6742 12.4894 2.73903 12.4408C2.80386 12.376 4.39217 13.8671 6.28842 15.7471C8.18467 17.6271 9.88643 19.2479 10.0809 19.3451C10.7616 19.6855 11.8151 19.5234 14.3434 18.6806C17.5849 17.6109 17.5525 17.6433 18.687 14.2398C19.5622 11.5494 19.6432 11.0956 19.3677 10.3339C19.2704 10.0908 17.6173 8.29176 15.6886 6.3631L12.1879 2.86233L12.7389 2.76508C14.2462 2.50577 15.8183 2.57059 17.4228 2.94337ZM47.779 48.5668L46.839 49.5068L40.1616 42.8294L33.468 36.1358L34.3918 35.212L35.3318 34.272L42.0092 40.9494L48.7028 47.643L47.779 48.5668ZM38.2978 44.6933L42.5603 48.9558L42.382 50.1551C42.0416 52.6186 42.7547 53.04 36.3691 46.6543C33.2735 43.5588 30.7614 40.9818 30.81 40.9332C30.8748 40.8683 33.0466 40.5118 33.7921 40.447C33.9218 40.447 35.9477 42.3432 38.2978 44.6933ZM57.941 48.4533L65.7853 56.2977L67.8274 56.2814C70.3233 56.2652 71.555 56.5408 73.6458 57.5456C74.9424 58.1777 75.4124 58.518 76.6603 59.7822C79.1076 62.2133 80.1287 64.4499 80.2583 67.6914C80.307 68.7286 80.2908 69.8631 80.2259 70.1873L80.1125 70.7869L76.6117 67.2862C74.6831 65.3575 72.884 63.7044 72.6409 63.6071C71.8792 63.3316 71.4254 63.4126 68.735 64.2878C65.3315 65.4223 65.3639 65.3737 64.2618 68.68C63.5487 70.868 63.419 71.3866 63.4838 72.1483L63.5649 73.0397L67.0981 76.5729C69.0591 78.534 70.5988 80.1709 70.534 80.2358C70.4854 80.3006 69.756 80.3816 68.9133 80.4303C61.7172 80.803 55.7692 74.7901 56.2068 67.5779L56.304 65.9572L50.3884 60.0253L44.4565 54.0773L44.651 52.6996L44.8455 51.322L45.4127 51.711C46.0448 52.1324 47.0497 52.2296 47.8276 51.9379C48.4111 51.711 50.7287 49.442 51.0367 48.7775C51.3446 48.1616 51.377 47.0433 51.1177 46.5409C51.0205 46.3464 50.1939 45.4388 49.3025 44.5312L47.6493 42.8618L48.7839 41.7273C49.3997 41.1115 49.9508 40.5928 49.9994 40.5928C50.048 40.5928 53.6136 44.126 57.941 48.4533ZM34.5215 48.5344L41.1664 55.1794L40.1292 56.2166L39.0919 57.2539L38.5895 56.5894C37.925 55.698 36.596 55.0173 35.5263 55.0173C33.6949 55.0173 34.1001 54.6931 24.9754 63.753C18.6708 70.0414 16.499 72.2942 16.2559 72.8291C15.7535 73.9311 15.8021 75.3412 16.3855 76.4109C16.6286 76.8647 17.1149 77.4481 17.4552 77.675C17.7956 77.9181 18.0711 78.1612 18.0711 78.2261C18.0711 78.2747 17.7307 78.6313 17.3256 78.9878C15.9642 80.1872 16.3855 80.4789 9.44883 73.5422C2.49592 66.5893 2.78765 67.0106 3.98699 65.6492C4.34355 65.2441 4.70011 64.9037 4.74873 64.9037C4.81356 64.9037 5.05666 65.1792 5.29977 65.5196C5.52668 65.8599 6.09393 66.3299 6.54773 66.5893C7.6012 67.1565 9.05986 67.2213 10.1457 66.7189C10.6806 66.4758 12.9658 64.2716 19.2218 57.9994C28.2817 48.8747 27.9575 49.2799 27.9575 47.4485C27.9575 46.3788 27.2768 45.0498 26.4016 44.3853L25.7209 43.8829L26.7096 42.878C27.2606 42.3432 27.7468 41.8894 27.7955 41.8894C27.8441 41.8894 30.8586 44.8715 34.5215 48.5344ZM36.3043 58.0156C36.596 58.2911 36.7094 58.5829 36.7094 59.0205C36.7094 59.6039 36.4177 59.9119 28.7355 67.6103C24.3595 71.9863 20.567 75.6653 20.3077 75.7788C19.3839 76.1515 18.3304 75.2439 18.5087 74.2391C18.5573 74.0122 21.9446 70.5114 26.7258 65.7303C34.1487 58.3236 34.8942 57.6104 35.3804 57.6104C35.737 57.6104 36.0449 57.7401 36.3043 58.0156ZM7.53638 75.5195L12.1392 80.1223L11.653 80.3006C10.9723 80.5599 9.62711 80.5275 8.89779 80.2196C8.02259 79.863 3.22524 75.0981 2.80386 74.1743C2.4635 73.4125 2.38247 72.0673 2.65799 71.338C2.75523 71.0949 2.85248 70.9004 2.86868 70.9004C2.9011 70.9004 4.99184 72.9749 7.53638 75.5195Z" fill="#FFCC00"/>
<path d="M22.2039 19.6692C22.0256 19.7503 21.3449 20.3661 20.7129 21.0306C19.6918 22.0679 19.5297 22.3272 19.5297 22.8134C19.5297 23.5104 20.1294 24.0614 20.8749 24.0614C21.2639 24.0614 21.6205 23.8021 22.6415 22.7972C23.8084 21.6465 23.9381 21.4682 23.9381 20.9172C23.9381 19.961 23.0467 19.3127 22.2039 19.6692Z" fill="#FFCC00"/>
<path d="M60.1613 60.3495C58.7837 61.7595 58.6216 62.2295 59.2537 63.0237C59.4968 63.3316 59.7399 63.4451 60.1613 63.4451C60.6638 63.4451 60.9069 63.283 62.0414 62.1647C63.1921 61.0464 63.3542 60.8195 63.3542 60.3009C63.3542 59.4905 62.9166 59.0691 62.0738 59.0691C61.4417 59.0691 61.312 59.1501 60.1613 60.3495Z" fill="#FFCC00"/>
<path d="M29.1731 52.1C28.9948 52.1648 25.2509 55.8276 20.8749 60.236C13.3386 67.7886 12.8848 68.2586 12.8848 68.8097C12.8848 69.5552 13.4196 70.09 14.1813 70.09C14.7 70.09 15.3159 69.5228 22.8036 62.035C27.5847 57.2539 30.891 53.8341 30.9559 53.591C31.0855 53.04 30.7776 52.3431 30.2914 52.1162C29.8214 51.9055 29.6269 51.9055 29.1731 52.1Z" fill="#FFCC00"/>
</svg>
