<svg width="83" height="83" viewBox="0 0 83 83" fill="none" xmlns="http://www.w3.org/2000/svg">
<path d="M34.6037 0.308487C33.8096 0.681252 32.9992 1.50782 32.675 2.30198C32.513 2.65854 32.4157 3.38786 32.4157 4.05236V5.18687H29.9522C27.1646 5.18687 26.5973 5.34894 25.6573 6.33759C24.7659 7.2776 24.6362 7.81245 24.6362 10.5353V12.9664H16.0788C6.59756 12.9664 6.77584 12.9501 4.6689 14.0522C2.6592 15.1057 0.957433 17.2451 0.260521 19.5951C0.0336197 20.3893 0.00120518 23.2742 0.00120518 47.974C0.00120518 78.4761 -0.0798311 76.0774 1.08709 78.314C2.14056 80.3237 4.27992 82.0255 6.62997 82.7224C7.42413 82.9493 10.9411 82.9817 42.4966 82.9817C81.1347 82.9817 78.0716 83.0627 79.2385 81.9606C80.3892 80.8585 80.3892 80.9558 80.3892 73.1439V66.1424L80.924 65.8668C81.6534 65.4941 82.3179 64.8458 82.6744 64.1489C82.9662 63.5816 82.9824 63.0954 82.9824 55.7535C82.9824 48.3954 82.9662 47.9254 82.6744 47.3581C82.253 46.5478 81.7992 46.094 81.0375 45.705L80.3892 45.3809V38.3631C80.3892 30.5512 80.3892 30.6485 79.2385 29.5464C78.3471 28.7198 77.6988 28.5253 75.6891 28.5253H73.9063V15.7216C73.9063 1.58886 73.9549 2.28577 72.8852 1.15126C72.5935 0.859528 72.0749 0.470558 71.7183 0.308487C71.1024 0.0167542 70.2597 0.000541687 53.161 0.000541687C36.0624 0.000541687 35.2196 0.0167542 34.6037 0.308487ZM70.3407 2.77199C71.3456 3.12855 71.3131 2.77199 71.3131 16.2888V28.5253H68.7362H66.1592L66.0458 27.7474C65.4461 23.7766 62.7233 20.0327 59.0767 18.2337C57.0346 17.2126 55.4949 16.8561 53.161 16.8561C50.811 16.8561 49.2713 17.2126 47.2454 18.2337C43.5501 20.0813 40.8759 23.7604 40.2762 27.7636L40.1628 28.5253H37.5858H35.0089V16.305C35.0089 7.61796 35.0575 3.95512 35.1872 3.56614C35.5437 2.56129 34.7496 2.60992 53.0962 2.5937C65.1544 2.5937 69.9517 2.64233 70.3407 2.77199ZM32.4157 18.1527V28.5253H29.8226H27.2294V18.8982C27.2294 12.156 27.278 9.12523 27.4077 8.75246C27.6832 7.97452 28.2667 7.79623 30.5195 7.78003H32.4157V18.1527ZM24.6362 22.0424V28.5253H16.9864C8.89899 28.5253 7.7969 28.4443 6.35445 27.796C5.23615 27.2774 3.82612 25.8511 3.27507 24.6842C2.8861 23.8414 2.83748 23.5497 2.83748 22.0424C2.83748 20.5351 2.8861 20.2272 3.27507 19.4168C4.18268 17.4882 6.19238 15.9809 8.21829 15.7216C8.73692 15.6568 12.6429 15.5919 16.9054 15.5757L24.6362 15.5595V22.0424ZM55.6569 19.8706C57.7639 20.4055 59.8546 21.7669 61.1674 23.4362C62.2371 24.8139 62.8368 26.1104 63.2743 28.0715L63.3716 28.5253H53.161H42.9504L43.0477 28.0715C43.3394 26.7911 43.5177 26.2563 43.9553 25.3487C45.2357 22.7231 47.6181 20.7296 50.4544 19.9193C51.751 19.5465 54.3117 19.5303 55.6569 19.8706ZM3.17783 29.0277C3.40473 29.4005 5.05787 30.3243 6.20859 30.7133L7.44034 31.1185H41.8646C67.1317 31.1185 76.4346 31.1671 76.8236 31.2968C77.7636 31.6371 77.796 31.8316 77.796 38.979V45.3809H69.8383C60.8919 45.3809 60.8757 45.3809 58.5905 46.564C56.1432 47.8282 54.1172 50.3889 53.4203 53.0955C53.08 54.4083 53.08 57.0987 53.4203 58.4115C54.1172 61.1181 56.1432 63.6789 58.6067 64.9592C60.8433 66.1099 60.9891 66.1262 69.9031 66.1262H77.796V72.528C77.796 79.6754 77.7636 79.8699 76.8236 80.2103C76.1105 80.4534 10.0335 80.4696 8.34794 80.2265C6.80825 79.9996 5.67375 79.4323 4.60407 78.3788C3.5506 77.3092 2.98334 76.1747 2.75644 74.635C2.57816 73.3708 2.52954 34.3599 2.70782 30.9078C2.80506 28.9953 2.9023 28.5901 3.17783 29.0277ZM80.0164 48.3468C80.292 48.6061 80.3082 49.1409 80.3082 55.7535C80.3082 62.3661 80.292 62.9009 80.0164 63.1602C79.7409 63.4357 79.1737 63.452 71.1024 63.452C63.2095 63.452 62.3992 63.4195 61.5078 63.1602C58.1366 62.123 55.9163 59.1894 55.9163 55.7697C55.9163 51.8476 58.7201 48.6871 62.6423 48.1361C63.1771 48.0713 67.2451 48.0226 71.6697 48.0389C79.1737 48.0551 79.7571 48.0713 80.0164 48.3468Z" fill="#FFCC00"/>
<path d="M41.8321 5.49477C41.6539 5.67305 41.4594 6.14306 41.4108 6.53203C41.2001 7.94206 40.3573 8.78484 38.9473 8.99554C37.5696 9.19002 37.6021 9.09278 37.6021 14.2629C37.6021 18.5902 37.6183 18.8171 37.9262 19.1251C38.1369 19.3358 38.461 19.4492 38.8986 19.4492C39.3362 19.4492 39.6604 19.3358 39.8711 19.1251C40.179 18.8171 40.1952 18.5902 40.1952 15.1705V11.5401L40.6652 11.4266C41.7997 11.1835 43.5987 9.38451 43.8418 8.25L43.9553 7.77999H45.6409C47.6343 7.77999 47.9747 7.58551 47.9747 6.48341C47.9747 6.04582 47.8612 5.72167 47.6506 5.51098C47.3588 5.21924 47.1157 5.18683 44.7332 5.18683C42.3832 5.18683 42.1077 5.21924 41.8321 5.49477Z" fill="#FFCC00"/>
<path d="M58.6714 5.51098C58.4607 5.72167 58.3473 6.04582 58.3473 6.48341C58.3473 7.58551 58.6876 7.77999 60.6811 7.77999H62.3667L62.4801 8.25C62.7232 9.38451 64.5223 11.1835 65.6568 11.4266L66.1268 11.5401V15.1705C66.1268 18.5902 66.143 18.8171 66.4509 19.1251C66.6616 19.3358 66.9858 19.4492 67.4234 19.4492C67.861 19.4492 68.1851 19.3358 68.3958 19.1251C68.7037 18.8171 68.7199 18.5902 68.7199 14.2629C68.7199 9.09278 68.7524 9.19002 67.3747 8.99554C65.9647 8.78484 65.1219 7.94206 64.9112 6.53203C64.7167 5.25166 64.5709 5.18683 61.5887 5.18683C59.2063 5.18683 58.9632 5.21924 58.6714 5.51098Z" fill="#FFCC00"/>
<path d="M10.698 35.3323C10.4873 35.543 10.3738 35.8672 10.3738 36.3048C10.3738 36.7424 10.4873 37.0665 10.698 37.2772C11.0221 37.6013 11.2328 37.6013 40.4221 37.6013C61.9291 37.6013 69.9517 37.65 70.3407 37.7796C70.989 38.0227 71.3131 38.7196 71.3131 39.9514C71.3131 41.0697 71.6535 41.4911 72.6097 41.4911C73.6956 41.4911 73.9063 41.1345 73.9063 39.3355C73.9063 37.6338 73.6308 36.872 72.7556 36.0292C71.5887 34.9271 74.1332 35.0082 41.0056 35.0082C11.2328 35.0082 11.0221 35.0082 10.698 35.3323Z" fill="#FFCC00"/>
<path d="M71.6373 70.34C71.3942 70.5831 71.3131 70.8749 71.3131 71.5556C71.3131 72.7873 70.989 73.4842 70.3407 73.7273C69.9517 73.857 61.9291 73.9056 40.4221 73.9056C11.2328 73.9056 11.0221 73.9056 10.698 74.2298C10.4873 74.4405 10.3738 74.7646 10.3738 75.2022C10.3738 75.6398 10.4873 75.964 10.698 76.1746C11.0221 76.4988 11.2328 76.4988 41.0056 76.4988C74.1332 76.4988 71.5887 76.5798 72.7556 75.4777C73.6308 74.635 73.9063 73.8732 73.9063 72.1552C73.9063 70.3724 73.6956 70.0159 72.6097 70.0159C72.1721 70.0159 71.848 70.1293 71.6373 70.34Z" fill="#FFCC00"/>
<path d="M61.8319 52.1717C60.4219 52.82 59.6439 54.1166 59.6439 55.7859C59.6601 58.0874 61.216 59.6432 63.5337 59.6432C65.8675 59.6432 67.4234 58.0874 67.4234 55.7535C67.4234 54.068 66.5644 52.7227 65.122 52.1231C64.2792 51.7665 62.6423 51.7989 61.8319 52.1717ZM64.344 54.9431C64.5223 55.1214 64.6682 55.478 64.6682 55.7535C64.6682 56.029 64.5223 56.3856 64.344 56.5639C64.1657 56.7422 63.8092 56.888 63.5337 56.888C63.2581 56.888 62.9016 56.7422 62.7233 56.5639C62.545 56.3856 62.3992 56.029 62.3992 55.7535C62.3992 55.478 62.545 55.1214 62.7233 54.9431C62.9016 54.7649 63.2581 54.619 63.5337 54.619C63.8092 54.619 64.1657 54.7649 64.344 54.9431Z" fill="#FFCC00"/>
</svg>
