<svg width="83" height="83" viewBox="0 0 83 83" fill="none" xmlns="http://www.w3.org/2000/svg">
<path d="M53.8333 0.275482C52.796 0.777908 52.5853 1.29654 52.5367 3.61417L52.4719 5.68871L51.5805 6.09389L50.6729 6.48286L49.4411 5.29973C48.7604 4.63523 47.9824 3.98695 47.6907 3.82487C47.0586 3.50072 46.0214 3.48452 45.3245 3.79246C45.0327 3.90591 43.7037 5.13766 42.3585 6.49907C40.4137 8.47636 39.8626 9.12464 39.7167 9.64328C39.5061 10.4374 39.5061 10.4698 39.7167 11.2478C39.8302 11.6692 40.3002 12.2851 41.1916 13.2251L42.5044 14.5865L42.1803 15.4293L41.8561 16.2883L39.8464 16.3693C38.1122 16.4341 37.7557 16.4989 37.237 16.8231C36.297 17.4066 35.9729 18.2655 35.9729 20.1456V21.7177H29.02H22.0833L21.5322 22.0905C20.3329 22.8846 20.4139 21.6204 20.4139 40.5505V57.5357H15.8759C12.3427 57.5357 11.0461 57.6006 10.0737 57.795C5.24391 58.7999 1.53244 62.3817 0.300692 67.2601C-0.169318 69.0915 -0.0720747 72.4464 0.478972 74.0671C1.2083 76.2389 2.06728 77.6165 3.72042 79.2697C5.03321 80.5987 5.48702 80.9228 6.7998 81.5711C9.32814 82.8191 10.2357 82.9811 14.8548 82.9811C18.5825 82.9811 18.8094 82.9649 19.1173 82.657C19.5711 82.2032 19.5549 81.1983 19.1011 80.7769C18.7932 80.5014 18.388 80.4528 14.5955 80.3718C10.9002 80.2907 10.3492 80.2421 9.50642 79.9342C7.9019 79.3507 6.76739 78.6052 5.47081 77.2924C3.47732 75.2827 2.56971 73.0623 2.56971 70.1774C2.58592 66.2876 4.74148 62.9165 8.38811 61.1013C10.4626 60.0803 8.48536 60.1289 41.4833 60.1289C75.0324 60.1289 72.504 60.0479 74.9351 61.2958C77.4472 62.6086 79.4407 65.1045 80.1376 67.8273C80.4618 69.0753 80.4618 71.4416 80.1376 72.6895C79.2949 75.9634 76.799 78.67 73.4603 79.9504L72.5202 80.3069L47.9176 80.388L23.2988 80.469L22.8936 80.939C22.4398 81.4739 22.4722 82.1546 22.9584 82.6894C23.2015 82.9649 24.255 82.9811 47.6421 82.9811C75.4051 82.9811 73.0875 83.0946 76.1669 81.5711C77.4797 80.939 77.9335 80.5987 79.2462 79.2697C80.5104 78.0055 80.948 77.4382 81.5639 76.2389C83.3791 72.7057 83.4763 68.3622 81.8394 64.8452C80.5266 62.0576 78.0793 59.6751 75.3079 58.5244C73.0875 57.6168 72.2933 57.5357 65.227 57.5357H58.8251V54.8939C58.8251 52.3332 58.8089 52.236 58.4523 51.8956C57.9013 51.377 57.0099 51.4094 56.5723 51.9604C56.2644 52.3494 56.2319 52.6087 56.2319 54.9588V57.5357H39.6195H23.0071V40.9233V24.3108H28.5175H34.028V28.6058C34.028 33.3707 34.0766 33.6138 35.0491 34.1973C35.827 34.6835 36.4105 34.6025 38.0798 33.7759L39.6033 33.0466L41.1592 33.7759C42.861 34.6025 43.412 34.6835 44.1899 34.1973C45.1624 33.6138 45.211 33.3707 45.211 28.6058V24.3108H50.7215H56.2319L56.2644 36.0773L56.313 47.8438L56.702 48.1517C57.2206 48.5731 57.9499 48.5407 58.4199 48.0545C58.8089 47.6817 58.8251 47.5521 58.8251 45.8827V44.1161L60.4945 44.0513C63.2011 43.9703 63.6873 43.3868 63.6873 40.2912V38.4112L64.6111 38.006L65.5349 37.5846L66.7505 38.8001C67.4312 39.4646 68.2091 40.1129 68.5008 40.2588C69.1329 40.5829 70.1702 40.5991 70.8671 40.2912C71.1588 40.1778 72.4878 38.946 73.833 37.5846C75.7779 35.6073 76.3289 34.959 76.4748 34.4404C76.6855 33.6462 76.6855 33.6138 76.4748 32.8359C76.3614 32.4145 75.8913 31.7986 74.9999 30.8586L73.6872 29.4972L74.0113 28.6544L74.3354 27.7954L76.3451 27.7144C78.7114 27.6171 79.3273 27.3578 79.8783 26.1909C80.1863 25.5588 80.2187 25.2185 80.2187 22.0418C80.2187 18.8652 80.1863 18.5249 79.8783 17.8928C79.3273 16.7259 78.7114 16.4665 76.3451 16.3693L74.3354 16.2883L74.0113 15.4293L73.6872 14.5865L74.9999 13.2251C75.8913 12.2851 76.3614 11.6692 76.4748 11.2478C76.6855 10.4698 76.6855 10.4374 76.4748 9.64328C76.3289 9.12464 75.7779 8.47636 73.833 6.49907C72.4878 5.13766 71.1588 3.90591 70.8671 3.79246C70.1702 3.48452 69.1329 3.50072 68.5008 3.82487C68.2091 3.97073 67.4312 4.61903 66.7505 5.28352L65.5349 6.49907L64.6273 6.09389L63.7197 5.68871L63.6549 3.61417C63.6062 1.71793 63.5738 1.49103 63.2173 1.02102C62.5042 0.0647888 62.18 -3.8147e-05 58.0634 -3.8147e-05C55.0002 -3.8147e-05 54.2709 0.0485764 53.8333 0.275482ZM61.1265 4.48937C61.2238 7.21219 61.5479 7.71461 63.7359 8.5736C65.8915 9.43259 66.4587 9.28672 68.355 7.40668L69.684 6.07768L71.7909 8.18462C72.9578 9.33534 73.8979 10.3564 73.8979 10.4536C73.8979 10.5509 73.3144 11.1992 72.6013 11.9123C71.483 13.0306 71.2885 13.3061 71.1264 14.0192C70.9481 14.8134 70.9643 14.9268 71.5316 16.2883C72.504 18.6869 72.9416 18.9624 75.7617 18.9624H77.6255V22.0418V25.1212H75.7617C72.9416 25.1212 72.504 25.3967 71.5316 27.7954C70.9643 29.1568 70.9481 29.2703 71.1264 30.0644C71.2885 30.7775 71.483 31.0531 72.6013 32.1714C73.3144 32.8845 73.8979 33.5328 73.8979 33.63C73.8979 33.7273 72.9578 34.7483 71.7909 35.899L69.684 38.006L68.355 36.677C66.4587 34.7969 65.8915 34.6511 63.7359 35.5101C61.5479 36.369 61.2238 36.8715 61.1265 39.5781L61.0617 41.4905H59.9434H58.8251V37.5522V33.5976L60.2351 33.3221C61.9045 32.9979 62.9093 32.5928 64.3518 31.6852C67.6743 29.562 69.5381 26.0936 69.5381 22.0418C69.5381 20.097 69.214 18.6059 68.3874 16.9365C66.9774 14.0192 64.2383 11.7664 61.0617 10.9074C59.6517 10.5185 56.5237 10.5185 55.1136 10.9074C51.1591 11.9771 47.9824 15.17 46.9938 19.0597C46.8155 19.7566 46.6697 20.6318 46.6697 21.0208V21.7177H42.6178H38.566V20.3401V18.9624H40.4137C43.0717 18.9624 43.6065 18.6869 44.4169 16.8879C45.5514 14.392 45.4379 13.8085 43.493 11.8313L42.1478 10.4374L44.3196 8.26566L46.5076 6.07768L47.8366 7.40668C49.7328 9.28672 50.3001 9.43259 52.4557 8.5736C54.6436 7.71461 54.9678 7.21219 55.065 4.48937L55.1299 2.59312H58.0958H61.0617L61.1265 4.48937ZM59.83 13.3061C63.2011 14.0192 66.0535 16.8231 66.7667 20.1132C67.026 21.2963 66.8963 23.8246 66.5236 24.8781C65.4377 27.9737 62.7148 30.2427 59.3599 30.8586L58.8251 30.9396V27.2606C58.8251 23.1439 58.7441 22.7874 57.7068 22.0905C57.172 21.7339 57.0423 21.7177 53.185 21.7177H49.2142L49.3114 20.8587C49.8139 15.9641 54.9516 12.2851 59.83 13.3061ZM42.6178 27.8764C42.6178 29.8375 42.5854 31.442 42.553 31.442C42.5206 31.442 41.9534 31.1827 41.3051 30.8748C40.6406 30.5668 39.8788 30.3075 39.5871 30.3075C39.2954 30.3075 38.5336 30.5831 37.8367 30.9558L36.6212 31.5879V27.9575V24.3108H39.6195H42.6178V27.8764Z" fill="#FFCC00"/>
<path d="M32.4721 45.202C31.6455 45.7044 31.5645 46.1258 31.6293 49.7238C31.6779 52.9004 31.6779 52.9814 32.0669 53.3866C32.2938 53.6135 32.7314 53.8728 33.0393 53.9701C33.8173 54.1808 45.4217 54.1808 46.2158 53.9701C46.54 53.8728 46.9938 53.5811 47.2207 53.3056L47.6421 52.8032V49.5779C47.6421 47.001 47.5934 46.2392 47.399 45.8665C46.8965 44.894 46.8479 44.894 39.5871 44.894C33.3959 44.894 32.9421 44.9102 32.4721 45.202ZM45.0489 49.5131V51.539H39.6195H34.19V49.5131V47.4872H39.6195H45.0489V49.5131Z" fill="#FFCC00"/>
<path d="M14.9034 64.5535C13.7365 64.8128 12.7155 65.4287 11.8403 66.3687C10.722 67.5842 10.4464 68.3622 10.4464 70.2584C10.4464 71.7009 10.4951 71.9764 10.9002 72.803C13.072 77.2438 19.328 77.2276 21.4998 72.803C21.905 71.9764 21.9536 71.7009 21.9536 70.2584C21.9536 68.816 21.905 68.5405 21.4998 67.7139C20.3329 65.3314 17.4966 63.9862 14.9034 64.5535ZM17.1076 67.1791C18.4366 67.568 19.4415 68.8808 19.4415 70.2422C19.4415 71.1661 19.2632 71.6199 18.5987 72.3654C17.9828 73.0947 17.0104 73.5647 16.1838 73.5809C15.341 73.5809 14.0445 72.8678 13.5096 72.1061C12.2941 70.3557 13.2017 67.8111 15.2438 67.1791C16.1676 66.8873 16.1676 66.8873 17.1076 67.1791Z" fill="#FFCC00"/>
<path d="M31.759 64.5535C30.5921 64.8128 29.571 65.4287 28.6958 66.3687C27.5775 67.5842 27.302 68.3622 27.302 70.2584C27.302 71.7009 27.3506 71.9764 27.7558 72.803C29.9276 77.2275 36.1836 77.2275 38.3554 72.803C38.7605 71.9764 38.8092 71.7009 38.8092 70.2584C38.8092 68.816 38.7605 68.5405 38.3554 67.7139C37.1884 65.3314 34.3522 63.9862 31.759 64.5535ZM33.9632 67.179C35.438 67.6166 36.3781 68.978 36.2646 70.5177C36.1512 71.9764 35.0329 73.2406 33.5904 73.5161C31.7914 73.8564 29.9762 72.3978 29.8465 70.5177C29.7331 68.9943 30.6569 67.6328 32.0994 67.179C33.0232 66.8873 33.0232 66.8873 33.9632 67.179Z" fill="#FFCC00"/>
<path d="M48.7766 64.5211C47.01 64.8776 45.2596 66.2552 44.5141 67.876C44.2224 68.4918 44.1575 68.9294 44.1575 70.2584C44.1575 71.7009 44.2062 71.9764 44.6113 72.803C46.7831 77.2275 53.0391 77.2275 55.2109 72.803C55.6161 71.9764 55.6647 71.7009 55.6647 70.2584C55.6647 68.816 55.6161 68.5405 55.2109 67.7139C54.0764 65.4125 51.2563 64.0024 48.7766 64.5211ZM50.8187 67.179C52.2936 67.6166 53.2336 68.978 53.1201 70.5177C53.0067 71.9764 51.8884 73.2406 50.4459 73.5161C48.6469 73.8564 46.8317 72.3978 46.7021 70.5177C46.5886 68.9943 47.5124 67.6328 48.9549 67.179C49.8787 66.8873 49.8787 66.8873 50.8187 67.179Z" fill="#FFCC00"/>
<path d="M65.6322 64.5211C63.8818 64.8614 62.1152 66.2553 61.3697 67.876C61.0779 68.4919 61.0131 68.9295 61.0131 70.2584C61.0131 71.7009 61.0617 71.9764 61.4669 72.803C63.6387 77.2276 69.8947 77.2438 72.0664 72.803C72.4716 71.9764 72.5202 71.7009 72.5202 70.2584C72.5202 68.816 72.4716 68.5405 72.0664 67.7301C71.5802 66.7253 70.3971 65.5259 69.4247 65.0235C68.8088 64.7156 67.1556 64.3266 66.6208 64.359C66.4749 64.3752 66.0373 64.44 65.6322 64.5211ZM67.6743 67.1791C68.5333 67.4384 69.295 68.1029 69.765 69.0267C70.1864 69.8533 70.0405 71.2633 69.4571 72.1061C68.9222 72.8678 67.6257 73.5809 66.7829 73.5809C66.0373 73.5809 65.0325 73.1109 64.4328 72.5113C62.7635 70.8419 63.5252 67.8922 65.8104 67.1791C66.7343 66.8873 66.7343 66.8873 67.6743 67.1791Z" fill="#FFCC00"/>
</svg>
