<svg width="61" height="83" viewBox="0 0 61 83" fill="none" xmlns="http://www.w3.org/2000/svg">
<path d="M28.2006 0.20433C26.9851 0.609512 26.2558 1.11194 23.5816 3.31612C22.1067 4.53167 20.6318 5.68238 20.2915 5.86066C19.8053 6.10378 18.7518 6.26585 15.7859 6.57378C11.5558 6.99517 10.6806 7.22208 9.41642 8.19451C9.01124 8.50245 8.42777 9.08591 8.11984 9.49109C7.1474 10.7715 6.9205 11.6629 6.4829 15.8767C6.19117 18.8265 6.0291 19.8799 5.78599 20.3662C5.60771 20.7065 4.457 22.1814 3.24145 23.6562C1.84763 25.3256 0.82657 26.7356 0.502425 27.3839C0.0324145 28.3725 0 28.5346 0 30.3012C0.0162073 32.7809 0.194487 33.1699 3.24145 36.8651C4.55424 38.4697 5.75358 40.0418 5.88323 40.3497C6.01289 40.6576 6.28842 42.6187 6.49911 44.7257C6.96912 49.442 7.22844 50.2361 8.84916 51.8244C10.0971 53.0562 11.1992 53.4614 14.0031 53.7693L16.4342 54.0448L11.9934 64.6606C9.384 70.868 7.53638 75.487 7.53638 75.795C7.53638 76.4757 8.20087 77.2698 8.88158 77.3833C9.23814 77.4481 10.6158 77.124 13.371 76.346C15.5428 75.7139 17.3418 75.2277 17.358 75.2439C17.3742 75.2601 18.2332 76.8485 19.2866 78.7609C20.3239 80.6734 21.3612 82.4075 21.5719 82.6182C21.8474 82.8613 22.1877 82.9748 22.6253 82.9748C23.4843 82.9748 23.8409 82.7641 24.2136 82.0348C24.3757 81.7106 26.5313 76.5891 29.011 70.6573C32.3821 62.5374 33.5976 59.7984 33.9056 59.5553C34.1325 59.377 35.5263 58.2263 37.0174 57.0108C38.784 55.5521 39.9509 54.6931 40.4371 54.5311C40.8423 54.4014 41.1826 54.3366 41.2151 54.4014C41.2313 54.4824 43.1113 58.9394 45.3641 64.3365C47.6331 69.7335 49.4483 74.1743 49.4321 74.1905C49.3997 74.2229 48.0383 73.8663 46.4176 73.4125C43.1761 72.4887 42.3334 72.4239 41.4582 73.056C41.1664 73.2667 40.4533 74.3687 39.4809 76.1515C38.6543 77.675 37.925 78.9554 37.8602 78.9878C37.8115 79.0364 36.8877 76.9943 35.8343 74.466C34.7808 71.9377 33.8246 69.7335 33.6949 69.5552C33.0304 68.599 31.361 69.231 31.361 70.4142C31.361 70.8842 36.207 82.2131 36.5636 82.5858C37.0174 83.072 38.2167 83.1207 38.7516 82.6831C38.946 82.5372 39.9833 80.7868 41.0692 78.7933C42.8844 75.5033 43.0951 75.1953 43.403 75.2926C44.651 75.6977 51.0529 77.4643 51.2474 77.4643C52.1874 77.4643 53.0464 76.265 52.787 75.3088C52.706 75.017 50.6801 70.1386 48.2976 64.4499C45.9152 58.7612 43.9865 54.0773 44.0189 54.061C44.0513 54.0286 44.9751 53.9152 46.0772 53.8017C48.4273 53.591 49.4483 53.2993 50.5667 52.5862C51.9443 51.6948 52.8681 50.463 53.3057 48.9233C53.4353 48.4371 53.7109 46.5085 53.8891 44.6446C54.0674 42.7646 54.3267 40.917 54.4564 40.5118C54.6347 40.0094 55.445 38.8911 56.9847 37.0272C58.2489 35.5199 59.4482 33.9803 59.6589 33.6237C60.2748 32.5702 60.5827 31.0467 60.4855 29.6691C60.3558 27.9025 59.6751 26.687 57.1306 23.6562C55.9799 22.2786 54.8454 20.7713 54.6347 20.3337C54.2943 19.653 54.1809 18.9885 53.8891 15.9578C53.7109 13.9967 53.4515 12.0194 53.3219 11.5818C52.7708 9.63696 51.0853 7.88657 49.108 7.22208C48.6704 7.06 46.6445 6.78448 44.5862 6.57378C42.5278 6.36309 40.583 6.08756 40.275 5.95791C39.9671 5.82825 38.395 4.62891 36.7905 3.31612C33.2249 0.382607 32.69 0.107086 30.4696 0.0422592C29.4486 0.00984192 28.6058 0.0746689 28.2006 0.20433ZM31.7662 2.89474C32.1228 3.05681 33.6625 4.20752 35.1698 5.43928C36.6932 6.68723 38.1033 7.80553 38.3302 7.9514C39.335 8.56728 40.275 8.77797 44.0513 9.15073C48.3625 9.58833 48.8973 9.7504 49.8859 10.8363C50.7287 11.7763 50.9394 12.5543 51.296 16.363C51.6525 20.0096 51.7822 20.7551 52.2846 21.7438C52.4467 22.0679 53.6784 23.6724 55.0236 25.3094C57.6978 28.5508 58.0868 29.2964 57.8761 30.7388C57.7303 31.8085 57.3413 32.4244 54.9426 35.3255C52.8032 37.9186 52.1874 38.8262 51.8146 40.0256C51.7012 40.3335 51.4743 42.1649 51.296 44.0774C51.1177 45.9898 50.8908 47.8213 50.8098 48.1454C50.5018 49.2799 49.2052 50.5765 48.0545 50.8844C47.7466 50.9655 45.9152 51.1924 44.0027 51.3706C42.0903 51.5489 40.2588 51.792 39.9509 51.8893C38.7678 52.262 37.8439 52.8617 35.2508 55.0173C32.3497 57.416 31.7338 57.8049 30.6641 57.9508C29.2217 58.1615 28.4762 57.7725 25.2347 55.0983C23.5978 53.7531 21.9932 52.5214 21.6691 52.3593C20.6805 51.8569 19.9349 51.7272 16.2883 51.3706C12.4796 51.0141 11.7016 50.8034 10.7616 49.9606C9.67573 48.972 9.51366 48.4371 9.09227 44.126C8.7033 40.3659 8.50881 39.4259 7.87673 38.4048C7.74707 38.1779 6.64498 36.8003 5.42943 35.3255C2.93351 32.2947 2.51213 31.5654 2.51213 30.4147C2.51213 29.1181 2.80386 28.4536 4.11664 26.8329C4.79735 26.0063 5.94806 24.5963 6.66118 23.6886C8.4926 21.452 8.62226 21.0631 9.09227 16.3143C9.43262 12.7974 9.51366 12.376 9.91884 11.6304C10.3726 10.8039 10.9075 10.3015 11.8799 9.81523C12.2365 9.63696 13.6465 9.42626 16.2559 9.16695C20.9884 8.69693 21.3774 8.56728 23.614 6.73586C28.9137 2.44093 28.622 2.63542 30.2265 2.603C30.7614 2.603 31.3773 2.71645 31.7662 2.89474ZM20.5832 54.8552C20.9398 55.0659 22.3984 56.2004 23.8247 57.3835C26.6447 59.7012 27.7955 60.3819 29.3027 60.544C30.0645 60.625 30.2427 60.706 30.1779 60.9167C30.0645 61.3381 22.7388 78.8257 22.6091 78.9716C22.5605 79.0364 21.896 77.9668 21.1667 76.6216C19.5946 73.7529 19.2056 73.1856 18.5573 72.8453C17.7956 72.4563 16.9852 72.5535 13.9382 73.4125C12.3499 73.8663 11.0209 74.2067 10.9885 74.1743C10.9561 74.1256 12.7227 69.8145 14.9269 64.5634C17.1149 59.3122 18.9787 54.8552 19.0597 54.6445C19.2218 54.2069 19.5297 54.2555 20.5832 54.8552Z" fill="#FFCC00"/>
<path d="M27.5362 11.1766C26.8555 11.3873 26.6286 11.6953 26.6286 12.4246C26.6286 12.8784 26.742 13.1215 27.05 13.3808C27.4389 13.7212 27.5686 13.7374 29.3028 13.6563C34.1325 13.4132 38.622 15.1474 41.9931 18.5509C48.4922 25.1311 48.4598 35.4389 41.912 41.9866C36.7905 47.1081 29.2217 48.3885 22.8685 45.1795C14.5055 40.9818 11.1669 31.0953 15.3159 22.8459C16.888 19.7341 19.5298 17.0275 22.4309 15.5526C22.9982 15.2609 23.5978 14.8881 23.7599 14.726C24.1651 14.3208 24.1651 13.2674 23.7923 12.9108C23.2088 12.3922 22.755 12.4246 21.3936 13.0891C16.1263 15.6823 12.2527 20.9334 11.1831 26.9463C10.7779 29.2153 10.9075 32.8457 11.4748 35.0013C13.4035 42.3756 19.3839 47.9347 26.8231 49.2799C28.5735 49.604 32.2687 49.5554 33.9381 49.2151C41.6527 47.5781 47.4063 41.857 49.1243 34.0937C49.5132 32.3595 49.5132 28.1294 49.1243 26.4439C47.4549 19.0047 42.1713 13.4456 34.9753 11.5494C33.6463 11.209 32.9332 11.128 30.7128 11.0794C29.2379 11.047 27.8117 11.0956 27.5362 11.1766Z" fill="#FFCC00"/>
<path d="M37.1956 21.3548C35.9314 21.5331 35.6721 21.7437 30.8424 26.5411L26.0126 31.3384L24.5053 29.8474C22.7549 28.1456 21.977 27.7242 20.6156 27.708C19.1083 27.708 17.909 28.4049 17.2121 29.7177C16.7583 30.5929 16.7258 32.3919 17.1634 33.2185C17.3255 33.5264 18.8166 35.1634 20.4859 36.8489C23.8408 40.2524 24.4567 40.6738 26.0126 40.6738C27.6657 40.6576 27.8602 40.5118 34.489 33.8992C37.8601 30.5443 40.8098 27.4811 41.0205 27.1084C42.4143 24.7745 40.9071 21.6465 38.2491 21.3548C37.8925 21.3224 37.4225 21.3224 37.1956 21.3548ZM38.5732 24.3855C38.8001 24.5962 38.9784 24.9366 38.9784 25.1473C38.9784 25.4066 37.2604 27.2218 32.7062 31.7922C27.3254 37.1731 26.353 38.0807 25.9478 38.0807C25.5588 38.0807 25.0078 37.6107 22.6577 35.2768C21.1018 33.7533 19.7242 32.2785 19.5783 32.0192C19.1569 31.225 19.7566 30.3012 20.6966 30.3012C20.9721 30.3012 21.6691 30.8846 23.0953 32.3271C24.1974 33.4292 25.2995 34.4016 25.5264 34.4827C26.4178 34.7906 26.7743 34.4989 32.0903 29.1667C37.7142 23.5265 37.7304 23.5265 38.5732 24.3855Z" fill="#FFCC00"/>
</svg>
