<svg width="71" height="84" viewBox="0 0 71 84" fill="none" xmlns="http://www.w3.org/2000/svg">
<path fill-rule="evenodd" clip-rule="evenodd" d="M18.0016 5.36998C2.38571 10.254 0.87163 10.7581 0.455429 11.2109L0 11.7063L0.0571323 28.2079C0.112148 44.1106 0.126797 44.7862 0.459986 46.83C1.76116 54.8097 4.76345 61.6599 9.59477 67.6729C15.1685 74.6099 23.0346 79.7947 31.5929 82.1722C35.1087 83.149 35.2816 83.1673 37.177 82.764C40.5922 82.0377 45.1784 80.3028 48.4395 78.504C52.0984 76.4858 55.0878 74.2542 58.0574 71.3244C64.8406 64.6322 68.9553 56.5571 70.5381 46.83C70.8703 44.7883 70.8852 44.0942 70.9416 28.2085L71 11.7078L70.5439 11.2081C70.1248 10.749 68.6968 10.2743 52.93 5.35375C43.4931 2.40872 35.6191 0.00475554 35.4323 0.0117339C35.2453 0.0188746 27.4016 2.42998 18.0016 5.36998ZM51.7432 8.39599L67.743 13.3878L67.685 28.9674C67.622 45.9503 67.6458 45.4761 66.6392 49.7402C65.3024 55.4038 62.4263 61.2384 58.7037 65.8383C53.4699 72.3054 45.81 77.2031 37.6731 79.2848L35.5334 79.8322L33.9247 79.4438C19.4721 75.9546 8.1108 64.6784 4.48723 50.227C3.3511 45.6955 3.37909 46.2046 3.31496 28.9674L3.25702 13.3878L19.1747 8.41076C27.9294 5.67346 35.2389 3.42707 35.418 3.41896C35.597 3.41084 42.9434 5.65041 51.7432 8.39599ZM22.4778 13.4917C11.2693 16.9945 9.98037 17.432 9.56937 17.8728L9.11297 18.3625L9.16978 31.2925C9.22528 43.9538 9.23423 44.2643 9.59965 46.2369C10.2525 49.7603 11.1927 52.6138 12.7155 55.693C16.7825 63.9165 23.9409 70.1186 32.7323 73.0359C33.9206 73.4302 35.0716 73.7105 35.4993 73.7097C37.9067 73.7055 46.5476 69.6616 48.1132 67.8067C48.6887 67.1246 48.6628 66.3289 48.0451 65.713C47.2817 64.9519 46.6582 65.0491 44.9357 66.1977C42.9249 67.5387 41.0993 68.4933 38.9175 69.3445C35.7264 70.5894 35.6966 70.5922 33.4403 69.8526C22.1033 66.137 13.885 55.8768 12.559 43.7824C12.4538 42.8236 12.3874 37.8671 12.3894 31.124L12.3926 20.0416L23.9572 16.4472L35.5218 12.8527L47.0265 16.4472L58.5312 20.0416L58.5789 30.8337C58.6092 37.6748 58.5623 42.309 58.4511 43.4921C58.1274 46.9333 57.0956 50.6701 55.5885 53.8597C54.6173 55.9152 54.644 56.6698 55.7073 57.2181C56.3392 57.5439 57.1327 57.4149 57.6096 56.9089C58.5315 55.9305 60.4804 50.7116 61.135 47.4682C61.8081 44.1333 61.868 42.725 61.868 30.2511V18.3428L61.4204 17.8599C61.0191 17.4273 59.6732 16.9722 48.453 13.4756C41.5672 11.3297 35.7075 9.57988 35.4315 9.58718C35.1556 9.59432 29.3263 11.3514 22.4778 13.4917ZM37.9054 33.5492L32.5684 38.8614L30.3309 36.6408C28.0865 34.4133 27.4947 33.9991 26.8036 34.1719C26.599 34.2232 24.9927 35.7064 23.234 37.4678C20.1668 40.5398 20.0363 40.6965 20.0363 41.308C20.0363 41.9298 20.181 42.0898 25.9391 47.8309L31.8421 53.7162H32.5674H33.2928L42.0375 44.9933C47.9322 39.1131 50.8172 36.1249 50.8898 35.824C50.9492 35.5786 50.9476 35.1768 50.8864 34.9314C50.7632 34.4366 45.3182 28.8548 44.5819 28.4679C43.5419 27.9219 43.6142 27.8669 37.9054 33.5492ZM45.5523 33.7972L47.0535 35.3003L39.7699 42.5611L32.4863 49.8218L28.2135 45.5595L23.9408 41.297L25.5673 39.6814L27.1939 38.0657L29.528 40.3733C31.819 42.6378 31.8754 42.6807 32.5768 42.6807H33.2915L38.5054 37.4881C41.373 34.6324 43.7939 32.2954 43.8852 32.2949C43.9765 32.2946 44.7267 32.9707 45.5523 33.7972ZM51.6949 60.3611C51.0918 60.6073 50.7256 61.1737 50.7256 61.8601C50.7256 62.3915 50.8239 62.6005 51.2536 62.9832C51.9762 63.6269 52.7682 63.6255 53.4165 62.9791C54.6523 61.747 53.3081 59.7028 51.6949 60.3611Z" fill="#FFCC00"/>
</svg>
