<svg width="134" height="46" viewBox="0 0 134 46" fill="none" xmlns="http://www.w3.org/2000/svg">
<path d="M55.6534 15.9985H49.6136L49.6278 26.2515H47.4056V14.0788H55.6676L55.6534 15.9985Z" fill="black"/>
<path d="M63.3028 23.4358H57.2061L56.0095 26.2515H53.6733L59.1576 14.0788H61.3798L66.8783 26.2515H64.5137L63.3028 23.4358ZM62.5479 21.6725L60.2545 16.354L57.9753 21.6725H62.5479Z" fill="black"/>
<path d="M78.9579 18.416C78.9579 21.0894 76.9779 22.739 73.7728 22.739H71.0236V26.2515H68.7586V14.0788H73.7728C76.9779 14.093 78.9579 15.7283 78.9579 18.416ZM76.6788 18.416C76.6788 16.8802 75.6531 15.9985 73.6589 15.9985H71.0093V20.8335H73.6589C75.6531 20.8335 76.6788 19.9518 76.6788 18.416Z" fill="black"/>
<path d="M92.3054 26.2657L92.2911 18.2027L88.2883 24.8721H87.2769L83.2741 18.3022V26.2657H81.1374V14.093H83.0035L87.8325 22.1418L92.6045 14.093H94.4563L94.4848 26.2657H92.3054Z" fill="black"/>
<path d="M105.966 23.4358H99.8694L98.6728 26.2515H96.3366L101.821 14.0788H104.043L109.542 26.2515H107.177L105.966 23.4358ZM105.211 21.6725L102.918 16.354L100.639 21.6725H105.211Z" fill="black"/>
<path d="M115.909 21.1321H113.644V26.2657H111.422V14.093H113.644V19.1839H115.98L119.485 14.093H121.892L117.732 19.9803L122.049 26.2515H119.485L115.909 21.1321Z" fill="black"/>
<path d="M122.647 20.1793C122.647 16.5389 125.439 13.9223 129.171 13.9223C131.151 13.9223 132.86 14.6334 134 15.9559L132.533 17.3352C131.65 16.3825 130.553 15.9132 129.271 15.9132C126.749 15.9132 124.912 17.6908 124.912 20.1936C124.912 22.6964 126.735 24.4739 129.271 24.4739C130.538 24.4739 131.635 24.0046 132.533 23.0377L134 24.4313C132.875 25.7538 131.165 26.4648 129.157 26.4648C125.439 26.4364 122.647 23.8056 122.647 20.1793Z" fill="black"/>
<path d="M21.41 2.10463V1.05232L19.5866 0L0 11.2911V26.962H3.66092V13.3957L17.7491 5.2758V9.9259L21.41 7.80705V2.10463Z" fill="#4C4C4C"/>
<path d="M39.1733 11.2911L25.4413 3.37026V7.59374L35.4981 13.3957V25.0423L39.1733 27.1753V11.2911Z" fill="#FFAA00"/>
<path d="M35.4981 28.9387L18.5468 19.0554V30.9722H3.66092H1.82334H0V33.859L19.5866 45.15L23.2476 43.0312L13.4471 37.3856L8.67511 34.6411H22.2077V25.4262L34.2731 32.4511L22.7063 39.1206L26.3814 41.2394L39.1733 33.859V31.0718L35.4981 28.9387Z" fill="black"/>
<path d="M49.7703 28.797V31.3851H49.172V29.2805H48.0039V31.3851H47.4056V28.797H49.7703Z" fill="#FFAA00"/>
<path d="M53.3742 29.7355C53.3742 30.3185 52.9469 30.6741 52.2489 30.6741H51.7218V31.3851H51.1235V28.797H52.2489C52.9326 28.797 53.3742 29.1525 53.3742 29.7355ZM52.7617 29.7355C52.7617 29.4511 52.5765 29.2805 52.2061 29.2805H51.7218V30.1763H52.2061C52.5765 30.1906 52.7617 30.0199 52.7617 29.7355Z" fill="#FFAA00"/>
<path d="M54.3286 30.091C54.3286 29.3231 54.9269 28.7543 55.7531 28.7543C56.5651 28.7543 57.1776 29.3231 57.1776 30.091C57.1776 30.8589 56.5793 31.4277 55.7531 31.4277C54.9412 31.4277 54.3286 30.8589 54.3286 30.091ZM56.5651 30.091C56.5651 29.5933 56.2232 29.2662 55.7531 29.2662C55.283 29.2662 54.9412 29.6075 54.9412 30.091C54.9412 30.5887 55.283 30.9158 55.7531 30.9158C56.2232 30.93 56.5651 30.5887 56.5651 30.091Z" fill="#FFAA00"/>
<path d="M58.3457 28.797H58.944V30.4892L60.1833 28.797H60.7531V31.3851H60.1548V29.7071L58.9155 31.3851H58.3457V28.797Z" fill="#FFAA00"/>
<path d="M64.0578 30.6598C64.0578 31.1433 63.5308 31.4277 62.904 31.4277C62.5621 31.4277 62.1918 31.3424 61.8641 31.1576L62.0493 30.7309C62.2915 30.8731 62.5764 30.9442 62.8328 30.9442C63.1747 30.9442 63.4453 30.8163 63.4453 30.5745C63.4453 30.3754 63.2601 30.2759 63.0037 30.2759H62.3627V29.8208H62.9467C63.1889 29.8208 63.3314 29.7071 63.3314 29.5364C63.3314 29.3231 63.1034 29.2093 62.8043 29.2093C62.5906 29.2093 62.3342 29.2662 62.1063 29.3942L61.9211 28.9249C62.206 28.7827 62.5194 28.7116 62.8043 28.7116C63.4026 28.7116 63.9296 28.9818 63.9296 29.4511C63.9296 29.7071 63.7872 29.9061 63.5593 30.0057C63.8727 30.1479 64.0578 30.3754 64.0578 30.6598Z" fill="#FFAA00"/>
<path d="M67.5336 30.6598C67.5336 31.1149 67.1774 31.3851 66.5222 31.3851H65.2401V28.797H66.451C67.0492 28.797 67.4054 29.0387 67.4054 29.4653C67.4054 29.7213 67.2629 29.9204 67.035 30.0341C67.3626 30.1337 67.5336 30.347 67.5336 30.6598ZM65.8384 29.8777H66.394C66.6504 29.8777 66.7928 29.7639 66.7928 29.5649C66.7928 29.3658 66.6504 29.252 66.394 29.252H65.8384V29.8777ZM66.921 30.6172C66.921 30.4039 66.7786 30.2901 66.4937 30.2901H65.8384V30.9442H66.4937C66.7786 30.9442 66.921 30.8447 66.921 30.6172Z" fill="#FFAA00"/>
<path d="M68.5307 30.091C68.5307 29.3231 69.129 28.7543 69.9552 28.7543C70.7672 28.7543 71.3797 29.3231 71.3797 30.091C71.3797 30.8589 70.7814 31.4277 69.9552 31.4277C69.129 31.4277 68.5307 30.8589 68.5307 30.091ZM70.7672 30.091C70.7672 29.5933 70.4253 29.2662 69.9552 29.2662C69.4851 29.2662 69.1433 29.6075 69.1433 30.091C69.1433 30.5887 69.4851 30.9158 69.9552 30.9158C70.411 30.93 70.7672 30.5887 70.7672 30.091Z" fill="#FFAA00"/>
<path d="M75.1546 30.9016V31.9255H74.599V31.3851H72.7614V31.9255H72.2059V30.9016H72.3056C72.6475 30.8874 72.733 30.3328 72.7472 29.6075L72.7757 28.797H74.77V30.9016H75.1546ZM73.0321 30.9016H74.1859V29.2947H73.3028L73.2885 29.6786C73.2743 30.219 73.203 30.6883 73.0321 30.9016Z" fill="#FFAA00"/>
<path d="M76.0805 30.091C76.0805 29.3089 76.6788 28.7543 77.4907 28.7543C77.9323 28.7543 78.3169 28.9107 78.5591 29.2093L78.1745 29.5649C78.0035 29.3658 77.7756 29.2662 77.5192 29.2662C77.0349 29.2662 76.693 29.6075 76.693 30.091C76.693 30.5745 77.0349 30.9158 77.5192 30.9158C77.7756 30.9158 78.0035 30.8163 78.1745 30.603L78.5591 30.9585C78.3169 31.2571 77.9466 31.4277 77.4907 31.4277C76.6788 31.4277 76.0805 30.8731 76.0805 30.091Z" fill="#FFAA00"/>
<path d="M81.6217 29.2947H80.7955V31.3993H80.1972V29.2947H79.371V28.8112H81.6217V29.2947Z" fill="#FFAA00"/>
<path d="M84.9977 30.6598C84.9977 31.1149 84.6416 31.3851 83.9864 31.3851H82.7043V28.797H83.9151C84.5134 28.797 84.8695 29.0387 84.8695 29.4653C84.8695 29.7213 84.7271 29.9204 84.4992 30.0341C84.8268 30.1337 84.9977 30.347 84.9977 30.6598ZM83.3026 29.8777H83.8581C84.1146 29.8777 84.257 29.7639 84.257 29.5649C84.257 29.3658 84.1146 29.252 83.8581 29.252H83.3026V29.8777ZM84.3852 30.6172C84.3852 30.4039 84.2428 30.2901 83.9579 30.2901H83.3026V30.9442H83.9579C84.2428 30.9442 84.3852 30.8447 84.3852 30.6172Z" fill="#FFAA00"/>
<path d="M88.1886 30.9016V31.3851H86.1801V28.797H88.1458V29.2805H86.7783V29.8493H87.9891V30.3185H86.7783V30.9158H88.1886V30.9016Z" fill="#FFAA00"/>
<path d="M91.764 28.797V31.3851H91.1658V30.3185H89.9834V31.3851H89.3852V28.797H89.9834V29.8208H91.1658V28.797H91.764Z" fill="#FFAA00"/>
<path d="M95.5105 28.797V31.3851H94.9122V30.3185H93.7298V31.3851H93.1316V28.797H93.7298V29.8208H94.9122V28.797H95.5105Z" fill="#FFAA00"/>
<path d="M98.6158 30.8305H97.405L97.1771 31.3851H96.5646L97.7184 28.797H98.3167L99.4705 31.3851H98.8437L98.6158 30.8305ZM98.4306 30.3754L98.0175 29.38L97.6044 30.3754H98.4306Z" fill="#FFAA00"/>
<path d="M102.476 28.797V31.3851H101.878V30.7025H101.337L100.881 31.3851H100.24L100.781 30.603C100.439 30.4607 100.24 30.1621 100.24 29.7639C100.24 29.1667 100.667 28.797 101.365 28.797H102.476ZM100.838 29.7639C100.838 30.0626 101.009 30.2332 101.351 30.2332H101.878V29.2947H101.365C101.023 29.2947 100.838 29.4511 100.838 29.7639Z" fill="#FFAA00"/>
<path d="M106.593 30.347H106.18V31.3851H105.582V28.797H106.18V29.8493H106.607L107.291 28.797H107.932L107.077 30.0484L107.946 31.3851H107.262L106.593 30.347Z" fill="black"/>
<path d="M108.758 30.091C108.758 29.3231 109.356 28.7543 110.183 28.7543C110.995 28.7543 111.607 29.3231 111.607 30.091C111.607 30.8589 111.009 31.4277 110.183 31.4277C109.356 31.4277 108.758 30.8589 108.758 30.091ZM110.98 30.091C110.98 29.5933 110.638 29.2662 110.168 29.2662C109.698 29.2662 109.356 29.6075 109.356 30.091C109.356 30.5887 109.698 30.9158 110.168 30.9158C110.638 30.93 110.98 30.5887 110.98 30.091Z" fill="black"/>
<path d="M115.126 31.3851V29.835L114.356 31.1149H114.086L113.316 29.8635V31.3851H112.747V28.797H113.245L114.214 30.4039L115.168 28.797H115.667V31.3851H115.126Z" fill="black"/>
<path d="M119.413 28.797V31.3851H118.815V29.2805H117.647V31.3851H117.049V28.797H119.413Z" fill="black"/>
<path d="M122.519 30.8305H121.308L121.08 31.3851H120.467L121.621 28.797H122.22L123.373 31.3851H122.747L122.519 30.8305ZM122.333 30.3754L121.92 29.38L121.507 30.3754H122.333Z" fill="black"/>
<path d="M126.821 28.797V31.3851H126.222V30.3185H125.04V31.3851H124.442V28.797H125.04V29.8208H126.222V28.797H126.821Z" fill="black"/>
<path d="M128.174 28.797H128.772V30.4892L130.011 28.797H130.581V31.3851H129.983V29.7071L128.744 31.3851H128.174V28.797Z" fill="black"/>
<path d="M134 28.797V31.3851H133.402V30.7025H132.86L132.405 31.3851H131.764L132.305 30.603C131.963 30.4607 131.764 30.1621 131.764 29.7639C131.764 29.1667 132.191 28.797 132.889 28.797H134ZM132.376 29.7639C132.376 30.0626 132.547 30.2332 132.889 30.2332H133.416V29.2947H132.903C132.561 29.2947 132.376 29.4511 132.376 29.7639Z" fill="black"/>
</svg>
