<svg width="333" height="112" viewBox="0 0 333 112" fill="none" xmlns="http://www.w3.org/2000/svg">
<path d="M138.652 39.6865H123.67L123.705 65.1202H118.193V34.9243H138.687L138.652 39.6865Z" fill="white"/>
<path d="M157.627 58.1357H142.504L139.535 65.1202H133.74L147.345 34.9243H152.857L166.497 65.1202H160.631L157.627 58.1357ZM155.755 53.7615L150.065 40.5684L144.412 53.7615H155.755Z" fill="white"/>
<path d="M196.462 45.6834C196.462 52.3152 191.55 56.4072 183.6 56.4072H176.78V65.1202H171.161V34.9243H183.6C191.55 34.9596 196.462 39.0163 196.462 45.6834ZM190.808 45.6834C190.808 41.8736 188.264 39.6865 183.317 39.6865H176.744V51.6802H183.317C188.264 51.6802 190.808 49.4931 190.808 45.6834Z" fill="white"/>
<path d="M229.572 65.1554L229.536 45.1541L219.607 61.6984H217.098L207.169 45.4011V65.1554H201.868V34.9595H206.497L218.476 54.9255L230.314 34.9595H234.907L234.978 65.1554H229.572Z" fill="white"/>
<path d="M263.459 58.1357H248.335L245.367 65.1202H239.572L253.176 34.9243H258.689L272.328 65.1202H266.462L263.459 58.1357ZM261.586 53.7615L255.897 40.5684L250.243 53.7615H261.586Z" fill="white"/>
<path d="M288.123 52.4209H282.505V65.1554H276.992V34.9595H282.505V47.5881H288.3L296.992 34.9595H302.964L292.646 49.5636L303.353 65.1201H296.992L288.123 52.4209Z" fill="white"/>
<path d="M304.837 50.0574C304.837 41.0268 311.763 34.5361 321.021 34.5361C325.933 34.5361 330.173 36.2999 333 39.5805L329.36 43.0023C327.17 40.6388 324.449 39.4747 321.269 39.4747C315.014 39.4747 310.456 43.8842 310.456 50.0927C310.456 56.3012 314.979 60.7106 321.269 60.7106C324.413 60.7106 327.134 59.5465 329.36 57.1478L333 60.6048C330.209 63.8854 325.968 65.6492 320.986 65.6492C311.763 65.5787 304.837 59.0527 304.837 50.0574Z" fill="white"/>
<path d="M53.7072 5.22079V2.61039L49.1842 0L0.597168 28.0088V66.8825H9.67852V33.2296L44.6258 13.0872V24.6224L53.7072 19.3663V5.22079Z" fill="#4C4C4C"/>
<path d="M97.7712 28.0091L63.7073 8.3606V18.8374L88.6545 33.2299V62.1206L97.7712 67.4119V28.0091Z" fill="#FFAA00"/>
<path d="M88.6545 71.7858L46.6046 47.2693V76.8302H9.67852H5.12018H0.597168V83.9912L49.1842 112L58.2655 106.744L33.9544 92.7395L22.1168 85.9313H55.686V63.0728L85.6156 80.4989L56.9228 97.0432L66.0394 102.299L97.7712 83.9912V77.0772L88.6545 71.7858Z" fill="white"/>
<path d="M124.058 71.4341V77.8542H122.574V72.6335H119.677V77.8542H118.193V71.4341H124.058Z" fill="#FFAA00"/>
<path d="M132.998 73.7623C132.998 75.2086 131.938 76.0905 130.207 76.0905H128.899V77.8542H127.415V71.4341H130.207C131.903 71.4341 132.998 72.316 132.998 73.7623ZM131.479 73.7623C131.479 73.0568 131.019 72.6335 130.101 72.6335H128.899V74.8558H130.101C131.019 74.8911 131.479 74.4678 131.479 73.7623Z" fill="#FFAA00"/>
<path d="M135.366 74.6445C135.366 72.7396 136.85 71.3286 138.899 71.3286C140.913 71.3286 142.433 72.7396 142.433 74.6445C142.433 76.5494 140.949 77.9604 138.899 77.9604C136.885 77.9604 135.366 76.5494 135.366 74.6445ZM140.913 74.6445C140.913 73.4099 140.065 72.5985 138.899 72.5985C137.733 72.5985 136.885 73.4452 136.885 74.6445C136.885 75.8792 137.733 76.6905 138.899 76.6905C140.065 76.7258 140.913 75.8792 140.913 74.6445Z" fill="#FFAA00"/>
<path d="M145.331 71.4341H146.815V75.6319L149.889 71.4341H151.302V77.8542H149.818V73.6917L146.744 77.8542H145.331V71.4341Z" fill="#FFAA00"/>
<path d="M159.5 76.0554C159.5 77.2548 158.193 77.9603 156.638 77.9603C155.79 77.9603 154.871 77.7486 154.058 77.2901L154.518 76.2318C155.119 76.5846 155.825 76.7609 156.461 76.7609C157.309 76.7609 157.981 76.4434 157.981 75.8438C157.981 75.3499 157.521 75.103 156.885 75.103H155.295V73.9741H156.744C157.345 73.9741 157.698 73.6919 157.698 73.2686C157.698 72.7395 157.133 72.4573 156.391 72.4573C155.861 72.4573 155.225 72.5984 154.659 72.9159L154.2 71.7518C154.907 71.399 155.684 71.2227 156.391 71.2227C157.875 71.2227 159.182 71.8929 159.182 73.057C159.182 73.692 158.829 74.1858 158.263 74.4327C159.041 74.7855 159.5 75.3499 159.5 76.0554Z" fill="#FFAA00"/>
<path d="M168.122 76.0552C168.122 77.184 167.239 77.8542 165.613 77.8542H162.433V71.4341H165.437C166.921 71.4341 167.804 72.0338 167.804 73.092C167.804 73.727 167.451 74.2209 166.885 74.5031C167.698 74.75 168.122 75.2791 168.122 76.0552ZM163.917 74.115H165.295C165.931 74.115 166.285 73.8328 166.285 73.339C166.285 72.8451 165.931 72.5629 165.295 72.5629H163.917V74.115ZM166.603 75.9494C166.603 75.4202 166.249 75.138 165.543 75.138H163.917V76.7607H165.543C166.249 76.7607 166.603 76.5138 166.603 75.9494Z" fill="#FFAA00"/>
<path d="M170.596 74.6445C170.596 72.7396 172.08 71.3286 174.129 71.3286C176.144 71.3286 177.663 72.7396 177.663 74.6445C177.663 76.5494 176.179 77.9604 174.129 77.9604C172.08 77.9604 170.596 76.5494 170.596 74.6445ZM176.144 74.6445C176.144 73.4099 175.296 72.5985 174.129 72.5985C172.963 72.5985 172.115 73.4452 172.115 74.6445C172.115 75.8792 172.963 76.6905 174.129 76.6905C175.26 76.7258 176.144 75.8792 176.144 74.6445Z" fill="#FFAA00"/>
<path d="M187.027 76.6549V79.1947H185.649V77.8542H181.091V79.1947H179.713V76.6549H179.96C180.808 76.6196 181.02 75.2438 181.055 73.4448L181.126 71.4341H186.073V76.6549H187.027ZM181.762 76.6549H184.624V72.6687H182.433L182.398 73.6212C182.363 74.9616 182.186 76.1257 181.762 76.6549Z" fill="#FFAA00"/>
<path d="M189.324 74.6445C189.324 72.7044 190.808 71.3286 192.822 71.3286C193.917 71.3286 194.871 71.7166 195.472 72.4574L194.518 73.3393C194.094 72.8455 193.529 72.5985 192.893 72.5985C191.691 72.5985 190.843 73.4452 190.843 74.6445C190.843 75.8439 191.691 76.6905 192.893 76.6905C193.529 76.6905 194.094 76.4436 194.518 75.9144L195.472 76.7963C194.871 77.5371 193.953 77.9604 192.822 77.9604C190.808 77.9604 189.324 76.5847 189.324 74.6445Z" fill="#FFAA00"/>
<path d="M203.069 72.6691H201.02V77.8899H199.536V72.6691H197.486V71.4697H203.069V72.6691Z" fill="#FFAA00"/>
<path d="M211.444 76.0552C211.444 77.184 210.561 77.8542 208.935 77.8542H205.755V71.4341H208.759C210.243 71.4341 211.126 72.0338 211.126 73.092C211.126 73.727 210.773 74.2209 210.207 74.5031C211.02 74.75 211.444 75.2791 211.444 76.0552ZM207.239 74.115H208.617C209.253 74.115 209.607 73.8328 209.607 73.339C209.607 72.8451 209.253 72.5629 208.617 72.5629H207.239V74.115ZM209.925 75.9494C209.925 75.4202 209.571 75.138 208.865 75.138H207.239V76.7607H208.865C209.571 76.7607 209.925 76.5138 209.925 75.9494Z" fill="#FFAA00"/>
<path d="M219.359 76.6549V77.8542H214.377V71.4341H219.253V72.6335H215.861V74.0445H218.865V75.2086H215.861V76.6902H219.359V76.6549Z" fill="#FFAA00"/>
<path d="M228.229 71.4341V77.8542H226.745V75.2086H223.812V77.8542H222.328V71.4341H223.812V73.9739H226.745V71.4341H228.229Z" fill="#FFAA00"/>
<path d="M237.522 71.4341V77.8542H236.038V75.2086H233.105V77.8542H231.621V71.4341H233.105V73.9739H236.038V71.4341H237.522Z" fill="#FFAA00"/>
<path d="M245.225 76.4785H242.222L241.657 77.8542H240.137L242.999 71.4341H244.483L247.346 77.8542H245.791L245.225 76.4785ZM244.766 75.3497L243.741 72.8804L242.717 75.3497H244.766Z" fill="#FFAA00"/>
<path d="M254.802 71.4341V77.8542H253.317V76.161H251.975L250.844 77.8542H249.254L250.597 75.9141C249.748 75.5613 249.254 74.8205 249.254 73.8328C249.254 72.3512 250.314 71.4341 252.045 71.4341H254.802ZM250.738 73.8328C250.738 74.5736 251.162 74.9969 252.01 74.9969H253.317V72.6687H252.045C251.197 72.6687 250.738 73.0568 250.738 73.8328Z" fill="#FFAA00"/>
<path d="M265.014 75.2791H263.989V77.8542H262.505V71.4341H263.989V74.0445H265.049L266.745 71.4341H268.335L266.215 74.5383L268.371 77.8542H266.674L265.014 75.2791Z" fill="white"/>
<path d="M270.385 74.6445C270.385 72.7396 271.869 71.3286 273.918 71.3286C275.933 71.3286 277.452 72.7396 277.452 74.6445C277.452 76.5494 275.968 77.9604 273.918 77.9604C271.869 77.9604 270.385 76.5494 270.385 74.6445ZM275.897 74.6445C275.897 73.4099 275.049 72.5985 273.883 72.5985C272.717 72.5985 271.869 73.4452 271.869 74.6445C271.869 75.8792 272.717 76.6905 273.883 76.6905C275.049 76.7258 275.897 75.8792 275.897 74.6445Z" fill="white"/>
<path d="M286.18 77.8542V74.0092L284.272 77.184H283.6L281.692 74.0798V77.8542H280.279V71.4341H281.516L283.918 75.4202L286.286 71.4341H287.523V77.8542H286.18Z" fill="white"/>
<path d="M296.816 71.4341V77.8542H295.332V72.6335H292.434V77.8542H290.95V71.4341H296.816Z" fill="white"/>
<path d="M304.519 76.4785H301.516L300.95 77.8542H299.431L302.293 71.4341H303.777L306.639 77.8542H305.085L304.519 76.4785ZM304.06 75.3497L303.035 72.8804L302.01 75.3497H304.06Z" fill="white"/>
<path d="M315.191 71.4341V77.8542H313.706V75.2086H310.774V77.8542H309.289V71.4341H310.774V73.9739H313.706V71.4341H315.191Z" fill="white"/>
<path d="M318.548 71.4341H320.032V75.6319L323.106 71.4341H324.519V77.8542H323.035V73.6917L319.961 77.8542H318.548V71.4341Z" fill="white"/>
<path d="M333 71.4341V77.8542H331.516V76.161H330.173L329.042 77.8542H327.452L328.795 75.9141C327.947 75.5613 327.452 74.8205 327.452 73.8328C327.452 72.3512 328.512 71.4341 330.244 71.4341H333ZM328.972 73.8328C328.972 74.5736 329.396 74.9969 330.244 74.9969H331.551V72.6687H330.279C329.431 72.6687 328.972 73.0568 328.972 73.8328Z" fill="white"/>
</svg>
