<svg width="14" height="14" viewBox="0 0 14 14" fill="none" xmlns="http://www.w3.org/2000/svg">
<path fill-rule="evenodd" clip-rule="evenodd" d="M5.72836 0.0305582C4.22976 0.19949 2.80934 0.903883 1.76331 1.99686C-0.263519 4.11459 -0.574724 7.26017 0.994262 9.76989C1.33058 10.3079 2.27103 11.2669 2.80999 11.6215C4.41822 12.6797 6.29482 12.9918 8.1306 12.5064C8.80623 12.3278 9.39041 12.0621 10.0181 11.6477L10.5751 11.2801L11.955 12.64L13.335 14L13.5534 13.9711C13.8514 13.9316 14 13.7585 14 13.451V13.2217L12.6551 11.8847L11.3102 10.5476L11.5633 10.2172C12.8097 8.59037 13.1922 6.57329 12.6321 4.58137C12.4817 4.04641 11.9917 3.07489 11.6314 2.59731C10.863 1.57881 9.78182 0.782974 8.59387 0.361369C7.77828 0.0719783 6.58395 -0.0659387 5.72836 0.0305582ZM7.3728 1.10308C9.40793 1.4552 11.0636 2.92757 11.6421 4.89988C12.2589 7.0025 11.4745 9.30432 9.6881 10.6341C8.11703 11.8037 5.95146 12.0308 4.19204 11.2104C3.55261 10.9123 3.21346 10.6813 2.69966 10.1938C1.95806 9.49026 1.46785 8.67141 1.20252 7.69318C1.08672 7.26633 1.07047 7.10785 1.06794 6.38225C1.06556 5.69351 1.08333 5.48546 1.17523 5.12579C1.61763 3.39509 2.88893 1.9726 4.54238 1.35815C5.37062 1.05035 6.48683 0.949755 7.3728 1.10308Z" fill="#969696"/>
</svg>
